HIERARCHY
ROOT Hips
{
	OFFSET 0.00000 0.00000 0.00000
	CHANNELS 6 Xposition Yposition Zposition Zrotation Yrotation Xrotation 
	JOINT LHipJoint
	{
		OFFSET 0 0 0
		CHANNELS 3 Zrotation Yrotation Xrotation
		JOINT LeftHip
		{
			OFFSET 1.34019 -1.87553 0.90315
			CHANNELS 3 Zrotation Yrotation Xrotation
			JOINT LeftKnee
			{
				OFFSET 2.55316 -7.01474 0.00000
				CHANNELS 3 Zrotation Yrotation Xrotation
				JOINT LeftAnkle
				{
					OFFSET 2.64657 -7.27139 0.00000
					CHANNELS 3 Zrotation Yrotation Xrotation
					JOINT LeftToe
					{
						OFFSET 0.24207 -0.66507 2.14489
						CHANNELS 3 Zrotation Yrotation Xrotation
						End Site
						{
							OFFSET 0.00000 -0.00000 1.12451
						}
					}
				}
			}
		}
	}
	JOINT RHipJoint
	{
		OFFSET 0 0 0
		CHANNELS 3 Zrotation Yrotation Xrotation
		JOINT RightHip
		{
			OFFSET -1.28320 -1.87553 0.90315
			CHANNELS 3 Zrotation Yrotation Xrotation
			JOINT RightKnee
			{
				OFFSET -2.60484 -7.15674 0.00000
				CHANNELS 3 Zrotation Yrotation Xrotation
				JOINT RightAnkle
				{
					OFFSET -2.60296 -7.15159 0.00000
					CHANNELS 3 Zrotation Yrotation Xrotation
					JOINT RightToe
					{
						OFFSET -0.31082 -0.85398 2.28998
						CHANNELS 3 Zrotation Yrotation Xrotation
						End Site
						{
							OFFSET -0.00000 -0.00000 1.21611
						}
					}
				}
			}
		}
	}
	JOINT lowerback
	{
		OFFSET 0 0 0
		CHANNELS 3 Zrotation Yrotation Xrotation
		JOINT Chest
		{
			OFFSET -0.00160 2.05581 -0.15156
			CHANNELS 3 Zrotation Yrotation Xrotation
			JOINT Chest2
			{
				OFFSET 0.04594 2.06326 -0.01617
				CHANNELS 3 Zrotation Yrotation Xrotation
				JOINT lowerneck
				{
					OFFSET 0 0 0
					CHANNELS 3 Zrotation Yrotation Xrotation
					JOINT Neck
					{
						OFFSET 0.03753 1.73883 0.26751
						CHANNELS 3 Zrotation Yrotation Xrotation
						JOINT Head
						{
							OFFSET -0.09795 1.76129 -0.31794
							CHANNELS 3 Zrotation Yrotation Xrotation
							End Site
							{
								OFFSET -0.03611 1.79987 -0.13846
							}
						}
					}
				}
				JOINT LeftCollar
				{
					OFFSET 0 0 0
					CHANNELS 3 Zrotation Yrotation Xrotation
					JOINT LeftShoulder
					{
						OFFSET 3.30667 1.29205 -0.22445
CHANNELS 3 Zrotation Xrotation Yrotation
						JOINT LeftElbow
						{
OFFSET 0 -4.927850 -0.000000
CHANNELS 3 Zrotation Xrotation Yrotation
							JOINT LeftWrist
							{
OFFSET 0 -3.440520 0.000000
CHANNELS 3 Zrotation Xrotation Yrotation
								JOINT lhand
								{
									OFFSET 0 0 0
CHANNELS 3 Zrotation Xrotation Yrotation
									JOINT LFingers
									{
OFFSET 0 -0.654330 0.000000
CHANNELS 3 Zrotation Xrotation Yrotation
										End Site
										{
OFFSET 0 -0.527530 0.000000
										}
									}
								}
								JOINT LThumb
								{
OFFSET 0 0.000000 0.000000
CHANNELS 3 Zrotation Xrotation Yrotation
									End Site
									{
OFFSET 0 -0.535590 0.535590
									}
								}
							}
						}
					}
				}
				JOINT RightCollar
				{
					OFFSET 0 0 0
					CHANNELS 3 Zrotation Yrotation Xrotation
					JOINT RightShoulder
					{
						OFFSET -3.20032 1.49783 -0.27688
CHANNELS 3 Zrotation Xrotation Yrotation
						JOINT RightElbow
						{
OFFSET 0 -5.091810 -0.000000
CHANNELS 3 Zrotation Xrotation Yrotation
							JOINT RightWrist
							{
OFFSET 0 -3.498650 -0.000000
CHANNELS 3 Zrotation Xrotation Yrotation
								JOINT rhand
								{
									OFFSET 0 0 0
CHANNELS 3 Zrotation Xrotation Yrotation
									JOINT RFingers
									{
OFFSET 0 -0.666410 0.000000
CHANNELS 3 Zrotation Xrotation Yrotation
										End Site
										{
OFFSET 0 -0.537280 0.000000
										}
									}
								}
								JOINT RThumb
								{
OFFSET 0 0.000000 0.000000
CHANNELS 3 Zrotation Xrotation Yrotation
									End Site
									{
OFFSET 0 -0.545480 0.545480
									}
								}
							}
						}
					}
				}
			}
		}
	}
}
MOTION
Frames: 10
Frame Time: 0.008333333333333333
0.817000 17.763600 -31.594500 -5.795600 11.663300 0.192100 0.000000 0.000000 0.000000 -18.720000 -3.485300 -11.648300 2.977500 10.658600 31.137000 0.581200 8.217500 -19.669500 0.040600 -1.300800 -3.576800 0.000000 0.000000 0.000000 21.307600 -6.258000 -14.246100 -6.849700 -15.204000 48.303600 0.053900 -9.176300 -12.060300 -1.073500 6.586300 -18.495300 -3.400600 -1.443200 6.216900 2.977300 -2.060300 -1.653600 5.239400 -0.869200 -4.984500 6.252000 -3.934700 -23.084100 -4.939400 -6.493000 26.827700 -4.027000 -2.922100 12.308000 -0.000000 -0.000000 0.000000 4.260100 1.450400 -21.338600 11.304300 -18.753200 1.872600 13.070800 1.341500 0.083500 0.000000 0.000000 0.000000 -7.125000 0.000000 0.000000 -10.583200 29.808400 -3.983400 -0.000000 -0.000000 0.000000 -6.207200 3.743200 13.253800 -16.540300 -26.247800 -3.881800 -15.900600 -7.155800 3.318300 0.000000 0.000000 0.000000 7.125000 0.000000 -0.000000 8.723200 33.337400 2.518700
0.818825 17.761276 -31.583162 -5.796431 11.317257 0.162094 0.000000 0.000000 0.000000 -18.675624 -3.123038 -11.726974 2.997498 10.690948 31.244630 0.588596 8.194187 -19.726249 0.058067 -1.520102 -4.181821 0.000000 0.000000 0.000000 21.235160 -5.973278 -14.112999 -6.868067 -15.219816 48.373646 0.027051 -8.858688 -12.109669 -1.045763 6.503111 -18.251328 -3.328498 -1.291815 6.269498 2.820305 -1.860686 -1.608336 5.013864 -0.775255 -4.996397 6.578999 -3.897615 -23.146980 -5.011979 -6.543904 26.709576 -4.111938 -2.925523 12.254237 0.000000 0.000000 0.000000 4.628673 1.214002 -21.607199 11.138896 -18.500840 1.819786 13.230194 1.533879 -0.171464 0.000000 0.000000 0.000000 -7.125000 0.000000 0.000000 -10.487931 30.068076 -3.879795 0.000000 0.000000 0.000000 -5.930041 3.680266 13.163170 -16.603905 -26.332640 -3.910047 -16.124334 -7.208792 3.087309 0.000000 0.000000 0.000000 7.125000 0.000000 0.000000 8.516047 33.107390 2.505674
0.824309 17.755854 -31.570202 -5.678797 11.044715 0.066186 0.000000 0.000000 0.000000 -18.778107 -2.600950 -11.698007 3.001357 10.697235 31.265477 0.622582 7.915098 -19.832084 0.090196 -1.925816 -5.300973 0.000000 0.000000 0.000000 21.002538 -5.912984 -13.998266 -6.907065 -15.253112 48.521778 0.016748 -8.613042 -11.952630 -1.065676 6.562837 -18.426442 -3.270617 -1.192672 6.385724 2.600004 -1.736813 -1.565650 4.739467 -0.718620 -5.038970 6.703332 -3.863895 -23.063495 -4.877483 -6.577622 26.691646 -4.082293 -2.909635 12.230664 0.000000 0.000000 0.000000 4.957119 1.210978 -21.650940 11.110267 -18.457017 1.810670 13.323565 1.551851 0.753419 0.000000 0.000000 0.000000 -7.125000 0.000000 0.000000 -10.317637 29.134441 -4.049072 0.000000 0.000000 0.000000 -5.635743 3.693683 13.233503 -16.672741 -26.424343 -3.940599 -16.335758 -7.174995 3.132538 0.000000 0.000000 0.000000 7.125000 0.000000 0.000000 8.350625 33.160859 2.445132
0.833995 17.754825 -31.559086 -5.400537 10.729995 0.066206 0.000000 0.000000 0.000000 -19.081507 -2.111794 -11.723943 3.001165 10.696947 31.264414 0.586589 8.020989 -19.553205 0.073720 -1.751040 -4.818009 0.000000 0.000000 0.000000 20.568624 -5.842725 -13.997796 -6.953524 -15.292656 48.698374 0.005686 -8.322088 -11.750535 -1.076316 6.594649 -18.519741 -3.253633 -1.105161 6.491884 2.303390 -1.635671 -1.586465 4.411381 -0.670674 -5.139954 6.820075 -3.809772 -22.807458 -4.716685 -6.570764 26.514335 -4.020405 -2.879226 12.114718 0.000000 0.000000 0.000000 5.315447 1.248969 -21.680657 11.087885 -18.422793 1.803565 13.650061 1.735533 0.661631 0.000000 0.000000 0.000000 -7.125000 0.000000 0.000000 -10.074400 29.229904 -3.927288 0.000000 0.000000 0.000000 -5.294294 3.729053 13.311488 -16.685239 -26.440919 -3.946106 -16.450099 -7.115025 3.042121 0.000000 0.000000 0.000000 7.125000 0.000000 0.000000 8.248318 33.071342 2.432637
0.843147 17.753936 -31.547475 -5.200565 10.452858 0.025905 0.000000 0.000000 0.000000 -19.301229 -1.666349 -11.681665 2.991982 10.682106 31.215068 0.577953 7.988686 -19.434307 0.079013 -1.813533 -4.990504 0.000000 0.000000 0.000000 20.231183 -5.814791 -13.993356 -7.008262 -15.338886 48.905673 -0.003883 -8.069729 -11.584142 -1.084976 6.620071 -18.594592 -3.201817 -1.015733 6.597862 2.051301 -1.527053 -1.595568 4.109359 -0.620107 -5.227995 6.967543 -3.764806 -22.600549 -4.621919 -6.571036 26.360046 -3.993036 -2.857571 12.013095 0.000000 0.000000 0.000000 5.627640 1.298925 -21.742726 11.116496 -18.466575 1.812668 13.840239 1.710191 0.607986 0.000000 0.000000 0.000000 -7.125000 0.000000 0.000000 -9.932475 29.285863 -3.856986 0.000000 0.000000 0.000000 -4.979834 3.757804 13.321098 -16.678975 -26.432597 -3.943394 -16.522826 -7.028799 2.924726 0.000000 0.000000 0.000000 7.125000 0.000000 0.000000 8.176825 32.952526 2.434920
0.853923 17.754312 -31.535533 -5.015442 10.185913 -0.016320 0.000000 0.000000 0.000000 -19.520040 -1.299676 -11.607068 2.982622 10.666856 31.164348 0.568307 7.999443 -19.342388 0.082178 -1.848718 -5.087874 0.000000 0.000000 0.000000 19.909285 -5.830015 -14.012525 -7.063312 -15.384926 49.113297 -0.009321 -7.854056 -11.391999 -1.092670 6.642914 -18.661733 -3.124870 -0.930699 6.684103 1.815593 -1.421134 -1.621507 3.810212 -0.571374 -5.321159 7.118675 -3.721727 -22.350766 -4.582407 -6.554450 26.234748 -3.984487 -2.835197 11.912924 0.000000 0.000000 0.000000 5.895055 1.411194 -21.797979 11.198766 -18.592191 1.838836 13.986784 1.572589 0.347067 0.000000 0.000000 0.000000 -7.125000 0.000000 0.000000 -9.844428 29.552054 -3.758520 0.000000 0.000000 0.000000 -4.685080 3.817433 13.301380 -16.646902 -26.389863 -3.929088 -16.520982 -6.897581 2.810375 0.000000 0.000000 0.000000 7.125000 0.000000 0.000000 8.166096 32.834354 2.455164
0.865902 17.755371 -31.522524 -4.868478 9.929466 -0.070597 0.000000 0.000000 0.000000 -19.711140 -1.002304 -11.488657 2.971634 10.649019 31.105056 0.563395 8.024440 -19.312090 0.089458 -1.928782 -5.308976 0.000000 0.000000 0.000000 19.631322 -5.880715 -14.040591 -7.118597 -15.430977 49.321553 -0.010647 -7.682698 -11.180580 -1.102488 6.671667 -18.746196 -3.010599 -0.848973 6.743687 1.604440 -1.314496 -1.651602 3.514933 -0.523597 -5.402699 7.299440 -3.664640 -22.110174 -4.602227 -6.511246 26.143730 -4.001117 -2.804951 11.826277 0.000000 0.000000 0.000000 6.121736 1.577399 -21.857471 11.326094 -18.786261 1.879608 14.086287 1.292174 0.089318 0.000000 0.000000 0.000000 -7.125000 0.000000 0.000000 -9.792696 29.814916 -3.675968 0.000000 0.000000 0.000000 -4.413208 3.899837 13.252924 -16.599562 -26.326830 -3.908103 -16.442130 -6.725708 2.706611 0.000000 0.000000 0.000000 7.125000 0.000000 0.000000 8.218340 32.724967 2.493096
0.878843 17.757099 -31.508782 -4.748810 9.675527 -0.122550 0.000000 0.000000 0.000000 -19.882350 -0.751883 -11.354694 2.959744 10.629610 31.040671 0.555917 8.089159 -19.290413 0.096546 -2.003836 -5.516330 0.000000 0.000000 0.000000 19.387672 -5.942216 -14.084549 -7.172673 -15.475565 49.524361 -0.007852 -7.556343 -10.945113 -1.115568 6.709916 -18.858662 -2.870922 -0.761096 6.763099 1.408148 -1.195737 -1.677438 3.218388 -0.471340 -5.456854 7.483567 -3.612452 -21.896777 -4.643552 -6.472132 26.103177 -4.030546 -2.777164 11.763291 0.000000 0.000000 0.000000 6.329397 1.768973 -21.955414 11.483152 -19.024895 1.930485 14.163886 0.908141 -0.084165 0.000000 0.000000 0.000000 -7.125000 0.000000 0.000000 -9.749610 29.992151 -3.617539 0.000000 0.000000 0.000000 -4.150558 3.990315 13.163979 -16.548313 -26.258397 -3.885374 -16.304021 -6.527242 2.637541 0.000000 0.000000 0.000000 7.125000 0.000000 0.000000 8.321898 32.649732 2.540349
0.892235 17.759413 -31.494394 -4.633509 9.426116 -0.162936 0.000000 0.000000 0.000000 -20.053772 -0.519691 -11.229156 2.948392 10.611011 30.978921 0.544450 8.183342 -19.252539 0.104709 -2.086293 -5.744221 0.000000 0.000000 0.000000 19.154348 -6.003223 -14.145576 -7.223842 -15.517505 49.715962 -0.001790 -7.470601 -10.692134 -1.127537 6.744468 -18.960404 -2.731709 -0.671081 6.749226 1.221749 -1.072757 -1.697518 2.931136 -0.417574 -5.484816 7.655761 -3.559559 -21.733614 -4.675199 -6.435035 26.102807 -4.058656 -2.748388 11.726588 0.000000 0.000000 0.000000 6.521734 1.976263 -22.103336 11.668959 -19.306287 1.991563 14.249534 0.414804 -0.217539 0.000000 0.000000 0.000000 -7.125000 0.000000 0.000000 -9.696247 30.128937 -3.565059 0.000000 0.000000 0.000000 -3.897573 4.073283 13.044073 -16.491092 -26.182032 -3.860087 -16.121996 -6.312812 2.583902 0.000000 0.000000 0.000000 7.125000 0.000000 0.000000 8.462144 32.589306 2.596452
0.905041 17.762565 -31.480380 -4.534300 9.180817 -0.183827 0.000000 0.000000 0.000000 -20.204302 -0.300105 -11.141221 2.939799 10.596905 30.932254 0.530021 8.287197 -19.191993 0.112666 -2.164344 -5.960167 0.000000 0.000000 0.000000 18.954699 -6.033068 -14.226365 -7.270626 -15.555651 49.890672 0.007649 -7.436320 -10.432770 -1.134662 6.764986 -19.020949 -2.598423 -0.576081 6.709546 1.054693 -0.942024 -1.705870 2.666174 -0.360211 -5.484315 7.757902 -3.533577 -21.638151 -4.645664 -6.435670 26.130614 -4.062115 -2.733650 11.716760 0.000000 0.000000 0.000000 6.695007 2.166606 -22.319109 11.885445 -19.632594 2.063686 14.309756 -0.204217 -0.306289 0.000000 0.000000 0.000000 -7.125000 0.000000 0.000000 -9.658290 30.219922 -3.529392 0.000000 0.000000 0.000000 -3.659960 4.120868 12.896382 -16.429089 -26.098998 -3.832726 -15.929424 -6.102999 2.538935 0.000000 0.000000 0.000000 7.125000 0.000000 0.000000 8.611680 32.537448 2.654159
